<svg xmlns="http://www.w3.org/2000/svg" width="80.4" height="90.7" viewBox="0 0 80.4 90.7"><path fill="#676868" d="M40.2 90.7c-.3 0-.5-.1-.7-.3L.3 51.8l-.1-.1-.1-.1c0-.1-.1-.3-.1-.5V39.6c0-.3.1-.5.3-.7L39.5.3l.1-.1c.1-.1.2-.1.3-.1h.3c.1 0 .2 0 .3.1.1 0 .2.1.2.1.1 0 .1.1.2.1L80.1 39c.2.2.3.4.3.7v11.6c0 .3-.1.6-.4.8l-9.7 9.6c-.4.4-1 .4-1.4 0l-3.2-3.1v7.3c0 .2-.1.3-.1.5v.1l-.1.1-9.8 9.6c-.4.4-1 .4-1.4 0L51 72.8v7.3c0 .2-.1.4-.2.5l-.1.1-9.8 9.6c-.2.3-.5.4-.7.4zM2.4 51.1l37.8 37.2 8.4-8.2-4.2-4.1c-.2-.2-.3-.4-.3-.7s.1-.5.3-.7l4.9-4.8c.2-.2.4-.3.6-.3h.2c.2 0 .4.1.5.2l.1.1 4.2 4.1 8.4-8.2-4.2-4.1c-.2-.2-.3-.4-.3-.7s.1-.5.3-.7l4.9-4.8c.2-.2.4-.3.6-.3h.2c.2 0 .4.1.5.2l.1.1 4.2 4.1 8.4-8.2L40.2 14 2.4 51.1zm44.1 24.1l2.5 2.4v-4.9l-2.5 2.5zm14.7-14.4l2.5 2.4v-4.9l-2.5 2.5zm-20-48.7l37.2 36.6V40L41.2 3.4v8.7zM2 40v8.8l37.2-36.6V3.4L2 40z"/></svg>