<?xml version="1.0" encoding="UTF-8" standalone="no"?>
<!-- Created with Inkscape (http://www.inkscape.org/) -->

<svg
   width="210mm"
   height="169mm"
   viewBox="0 0 210 169"
   version="1.1"
   id="svg1"
   xml:space="preserve"
   inkscape:version="1.4 (e7c3feb100, 2024-10-09)"
   sodipodi:docname="acty-thicc.svg"
   xmlns:inkscape="http://www.inkscape.org/namespaces/inkscape"
   xmlns:sodipodi="http://sodipodi.sourceforge.net/DTD/sodipodi-0.dtd"
   xmlns="http://www.w3.org/2000/svg"
   xmlns:svg="http://www.w3.org/2000/svg"><sodipodi:namedview
     id="namedview1"
     pagecolor="#ffffff"
     bordercolor="#000000"
     borderopacity="0.25"
     inkscape:showpageshadow="2"
     inkscape:pageopacity="0.0"
     inkscape:pagecheckerboard="0"
     inkscape:deskcolor="#d1d1d1"
     inkscape:document-units="mm"
     inkscape:zoom="1"
     inkscape:cx="506"
     inkscape:cy="307"
     inkscape:window-width="2530"
     inkscape:window-height="1386"
     inkscape:window-x="9"
     inkscape:window-y="33"
     inkscape:window-maximized="1"
     inkscape:current-layer="svg1"><inkscape:page
       x="0"
       y="0"
       width="210"
       height="169"
       id="page22"
       margin="0"
       bleed="0" /></sodipodi:namedview><defs
     id="defs1" /><g
     inkscape:label="Layer 1"
     inkscape:groupmode="layer"
     id="layer1"
     style="display:none"
     transform="translate(18.200929,85.000319)"><path
       id="path1"
       style="display:inline;fill:#f60000;fill-opacity:1"
       d="m 93.211391,-79.115127 -6.35,2.130619 c -7.14525,2.397425 -11.387142,3.888344 -12.170832,4.277258 -0.51557,0.255855 -5.141698,1.938668 -6.500379,2.364714 -0.373755,0.1172 -0.909536,0.343727 -1.190625,0.503328 -0.28109,0.159602 -1.281393,0.603636 -2.22312,0.986503 -1.644028,0.668393 -3.656023,1.562746 -6.496761,2.888196 -0.731461,0.34129 -2.42097,1.101012 -3.754293,1.687752 -1.333324,0.586739 -2.639633,1.189491 -2.903182,1.339454 -0.263549,0.149962 -1.908307,0.975283 -3.654557,1.834513 -9.127299,4.491 -15.344758,9.582392 -19.055168,15.603182 -0.148494,0.24096 -0.581768,0.920662 -0.962732,1.510502 -1.348802,2.08832 -2.63956,4.951431 -3.134692,6.953581 l -0.501261,2.0283 -0.286288,5.55625 c -0.157256,3.05594 -0.353882,5.93852 -0.437182,6.40581 l -0.151412,0.849561 -1.097091,0.555005 c -0.603329,0.30535 -2.04959,1.060857 -3.213757,1.678967 -1.164166,0.6181 -4.259792,2.233968 -6.879167,3.590478 -2.6193745,1.3565 -4.8754025,2.570203 -5.0136465,2.696993 l -0.251148,0.230477 h 0.305925 c 0.168387,0 1.352852,-0.54975 2.632397,-1.22163 1.2795445,-0.67188 3.6361605,-1.90806 5.2368895,-2.74712 1.60073,-0.83905 3.960964,-2.077193 5.244641,-2.751253 2.863767,-1.50377 2.722909,-1.602644 2.883028,2.025716 l 0.132292,2.993616 0.528133,1.180806 c 0.753843,1.68571 1.014234,1.895812 4.760949,3.835942 7.313862,3.7872697 16.350412,8.1695957 20.979082,10.17405573 1.091407,0.47263 2.974055,1.32175997 4.183207,1.88670997 1.209151,0.56495 2.268922,1.02732 2.355412,1.02732 0.08649,0 0.782537,0.29584 1.546675,0.65733 l 1.389579,0.65681 1.810743,0.15968 c 0.996153,0.0877 2.525634,0.0385 3.398759,-0.10956 l 1.5875,-0.26923 0.264583,0.41909 c 0.145521,0.23064 0.606909,0.82065 1.02526,1.31103 l 0.622701,0.73019 c 0.0068,0.001 0.01384,0.002 0.02067,0.003 0.02592,0.006 0.05095,0.0147 0.07648,0.0217 0.01458,0.007 0.0281,0.0182 0.04393,0.0222 0.01415,0.004 0.02986,-0.005 0.04341,0 0.02441,0.01 0.04121,0.0334 0.06563,0.0434 0.01354,0.005 0.0297,-0.003 0.04393,0 0.16418,0.0368 -0.0053,0.009 0.07648,0.0331 0.02879,0.009 0.06037,0.01 0.08785,0.0217 0.0074,0.003 0.0036,0.0182 0.01085,0.0222 0.02374,0.0119 0.05222,0.0109 0.07648,0.0217 0.0094,0.004 0.0144,0.0147 0.0217,0.0217 0.02553,0.0109 0.05095,0.0222 0.07648,0.0331 0.01407,0.004 0.03088,-0.007 0.04393,0 0.02306,0.0115 0.01714,0.0578 0.05478,0.0548 0.01381,0.006 0.03141,0.003 0.04393,0.0109 0.01093,0.007 0.0124,0.0236 0.0217,0.0326 0.01149,0.0115 0.04325,0.0103 0.06563,0.0439 0.004,0.006 -0.0052,0.0167 0,0.0217 0.0052,0.005 0.0184,-0.007 0.0217,0 0.0033,0.007 -0.0044,0.0162 0,0.0222 0.06309,0.0842 0.0063,-0.0106 0.05478,0.0217 0.0071,0.005 0.02423,0.0395 0.04134,0.0744 4.050281,1.79867 5.041048,2.00882 6.320545,1.34152 0.41682,-0.21739 0.893073,-0.39691 1.058333,-0.39791 2.85412,-0.0244 6.69004,-8.07847997 5.76967,-12.11399 l -0.258895,-1.136364 0.702285,0.137976 c 0.38619,0.07581 1.24455,0.274694 1.90789,0.441834 l 1.20613,0.303857 3.29179,-1.37976 c 3.2593,-1.3662 4.39916,-1.852799 5.93762,-2.534729 0.98504,-0.43662 2.65318,-1.149162 4.89479,-2.0903117 0.945889,-0.39713 2.095289,-0.88996 2.553849,-1.09554 0.45855,-0.20558 0.90436,-0.374138 0.99116,-0.374138 0.0868,0 0.90239,-0.342037 1.81229,-0.760677 1.35738,-0.62453 4.62631,-1.99732 6.13451,-2.57607 l 0.339,-0.130225 0.32039,0.77308 c 0.48948,1.1817 1.83192,2.309736 3.64991,3.066996 l 1.64589,0.685229 h 1.58647 1.58646 l 1.00098,-0.451652 c 0.55064,-0.24857 1.2678,-0.684769 1.5937,-0.969449 l 0.59272,-0.517798 0.51574,0.466638 c 0.2837,0.25674 1.12955,1.521138 1.87947,2.8096477 0.74992,1.2885 1.53098,2.482044 1.73581,2.652034 0.20483,0.17 0.37207,0.42282 0.37207,0.56224 0,0.13942 0.41672,0.899112 0.92604,1.687752 1.47996,2.2916 2.57526,4.03626003 4.22093,6.72517 0.84608,1.38245 1.87986,3.0094 2.29702,3.61528 0.41715,0.60587 0.75809,1.22196 0.75809,1.36891 0,0.14695 0.2679,0.60407 0.59532,1.01596 0.32742,0.41189 0.76495,1.04596 0.97203,1.40922 0.20708,0.36327 0.60544,1.0471103 0.88522,1.5192803 l 0.50849,0.85835 -0.42219,0.16226 c -0.64571,0.24778 -0.50948,0.53239 0.478,1.00098 1.21378,0.57612 1.21647,0.57454 1.21647,-0.63149 v -1.05833 h -0.52297 c -0.28769,0 -0.72505,-0.32743 -0.97203,-0.72761 -0.24698,-0.40018 -0.82772,-1.3229103 -1.29088,-2.0505203 -0.46316,-0.7276 -0.889,-1.44198 -0.9462,-1.5875 -0.0572,-0.14552 -0.6523,-1.09801 -1.3224,-2.11666 -0.6701,-1.01864 -2.43988,-3.81662 -3.93257,-6.21771 -1.4927,-2.4011 -2.97888,-4.782349 -3.30264,-5.291669 -0.32375,-0.50932 -1.38657,-2.212035 -2.36213,-3.7842647 l -1.77405,-2.858741 0.73845,-0.977718 c 1.10033,-1.45699 1.55845,-2.389693 2.06189,-4.198193 l 0.45475,-1.632459 -0.13901,-2.071708 c -0.0764,-1.13934 -0.2227,-2.400523 -0.32504,-2.802413 l -0.18604,-0.730704 0.62684,0.230477 0.62632,0.230476 0.0816,1.095541 0.0811,1.09554 h 0.50591 c 0.82127,0 2.59881,-1.052304 3.19774,-1.893424 l 0.55552,-0.780831 -0.14108,-7.989177 c -0.0777,-4.39419 -0.26494,-8.465936 -0.41599,-9.048026 l -0.2744,-1.058334 0.11472,1.322917 c 0.0631,0.7276 0.1964,4.750426 0.2961,8.939506 l 0.18139,7.61659 -1.26814,1.180806 c -1.13424,1.05624 -2.2155,1.523129 -2.2748,0.982369 -0.18672,-1.70301 -1.3566,-4.320571 -2.31975,-5.190381 l -0.54726,-0.494543 -0.73845,0.17725 c -0.8137,0.19539 -4.74635,1.794124 -6.08749,2.474784 -1.23814,0.62839 -1.88513,1.660974 -2.46703,3.936194 -0.6313,2.46838 -1.70261,4.676795 -2.79311,5.758305 l -0.81959,0.81287 -2.88458,1.156519 c -1.58644,0.6361 -3.62885,1.499299 -4.53874,1.918229 -0.90989,0.41893 -1.71008,0.76171 -1.77818,0.76171 -0.10494,0 -1.5171,0.605608 -3.711409,1.591118 -0.29104,0.13071 -1.30306,0.546791 -2.24895,0.9244907 -0.94588,0.37771 -2.07699,0.850766 -2.51355,1.051616 -2.06499,0.95007 -5.91498,2.518192 -6.18256,2.518192 h -0.29973 l -0.0284,-7.6067707 c -0.0158,-4.18372 -0.11568,-8.321141 -0.22169,-9.194271 -0.106,-0.87312 -0.13521,1.389064 -0.0651,5.027084 0.0701,3.63803 0.04,7.881328 -0.0667,9.4293977 l -0.19378,2.814816 -1.02061,0.45992 c -1.42509,0.64262 -3.403,-0.863936 -3.4432,-2.623096 -0.0174,-0.75846 -0.81333,-2.2978287 -1.36529,-2.6401487 l -0.452174,-0.280086 -1.23145,0.329179 c -0.67728,0.18115 -1.723866,0.550542 -2.325956,0.8206217 -0.6021,0.27009 -1.868925,0.769113 -2.814815,1.109493 -0.94588,0.34037 -2.060185,0.920303 -2.476335,1.288293 -1.6324,1.44349 -2.021582,1.843393 -2.021582,2.078943 0,0.13465 -0.198613,0.408512 -0.441833,0.608232 -0.532177,0.436999 -2.217375,4.01237903 -2.87321,6.096269 l -0.472322,1.49965 -1.064018,0.48007 -1.064535,0.48008 -2.796728,0.004 -2.796729,0.004 -2.38125,-1.02061 c -1.309687,-0.56121 -2.797968,-1.19704 -3.307291,-1.41284 -0.509322,-0.2158 -1.223697,-0.54370997 -1.5875,-0.72863997 -0.363802,-0.18493 -2.387865,-1.09137 -4.497917,-2.01434003 -2.110052,-0.92297 -7.727169,-3.613603 -12.482442,-5.979483 l -8.645913,-4.3012057 -0.945162,-0.945678 c -1.302053,-1.30205 -1.675212,-2.350255 -1.892908,-5.315955 l -0.187068,-2.550749 0.607714,0.19327 c 0.334344,0.10611 1.155106,0.51146 1.824178,0.90072 0.669072,0.38925 2.347557,1.280548 3.730005,1.980758 1.382448,0.70021 2.692136,1.377968 2.910417,1.506368 0.771991,0.4541 7.566502,3.730243 9.392708,4.528923 2.009122,0.87867 4.670996,2.0758957 6.35,2.8561557 0.582083,0.27051 1.844563,0.786096 2.805514,1.145666 0.960952,0.35956 1.972982,0.775485 2.248958,0.923975 1.391613,0.74878 4.226179,1.737752 4.836914,1.687752 2.261381,-0.18529 3.137907,-1.174956 1.419552,-1.602486 -0.545704,-0.13577 -1.230312,-0.310623 -1.521354,-0.389123 -0.858684,-0.23153 -2.844665,-0.964936 -3.764628,-1.390096 -0.469884,-0.21715 -1.353992,-0.571036 -1.964738,-0.786516 -0.610747,-0.21549 -1.595637,-0.619389 -2.188497,-0.897619 -2.428945,-1.1399097 -4.659855,-2.1306197 -4.798157,-2.1306197 -0.70973,0 -18.154658,-8.808594 -19.994645,-10.096024 l -0.626835,-0.438216 0.513147,-0.204639 0.513147,-0.204122 1.51877,0.841292 c 0.835269,0.46271 1.7652,0.841293 2.06654,0.841293 h 0.547771 l 0.03927,-1.389063 c 0.02155,-0.76398 0.06335,-1.567657 0.09302,-1.785937 0.02967,-0.21829 0.07198,-0.533082 0.09354,-0.699182 0.02154,-0.1661 0.505163,-0.488286 1.074869,-0.716236 0.569706,-0.22795 1.112398,-0.538747 1.206128,-0.690397 0.09373,-0.15166 0.394312,-0.275435 0.668177,-0.275435 0.497658,0 0.962015,-0.449275 0.717269,-0.694015 -0.07128,-0.07129 -0.941675,0.29379 -1.934249,0.81132 -2.114576,1.10254 -2.072203,1.095347 -2.380217,0.407727 -0.131379,-0.29329 -1.251293,-1.039626 -2.48822,-1.658296 l -2.248958,-1.124996 0.01602,-3.362586 c 0.01882,-4.03292 -0.03589,-3.956789 1.916679,-2.678389 0.859339,0.56264 4.073891,2.273348 7.143233,3.801318 6.200166,3.08654 5.963186,2.907832 4.673617,3.522782 -1.19841,0.57148 -1.181174,0.575714 -1.185974,-0.281636 -0.0022,-0.40019 -0.106386,-0.889286 -0.231511,-1.086756 l -0.227376,-0.359151 -0.570508,0.181385 c -0.313885,0.09962 -0.864572,0.474927 -1.223698,0.834057 l -0.65319,0.652674 v 1.024743 c 0,2.11992 0.678248,2.41993 2.116667,0.93586 0.493655,-0.50933 1.025369,-0.926041 1.181323,-0.926041 0.155955,0 0.720984,-0.297562 1.255738,-0.660942 l 0.97255,-0.660425 0.610299,0.235128 c 0.335771,0.12948 1.896277,0.843763 3.468005,1.586983 1.571728,0.74322 2.906914,1.351339 2.966744,1.351339 0.122361,0 3.986853,1.756171 4.673617,2.123901 1.041158,0.55749 5.277068,2.109432 5.757788,2.109432 0.844484,0 1.503329,-0.957403 1.965254,-2.856673 0.551414,-2.26723 1.685088,-6.19152 2.232422,-7.72666 0.233475,-0.65484 0.445779,-1.309688 0.471289,-1.455208 0.02551,-0.14552 0.369427,-1.198716 0.764295,-2.340426 l 0.717785,-2.075842 -0.169498,-0.902787 c -0.221354,-1.17992 -0.67222,-1.446216 -4.918563,-2.904216 -1.958265,-0.67237 -4.060036,-1.448459 -4.670516,-1.724959 -0.610479,-0.27651 -1.172073,-0.502812 -1.248503,-0.502812 -0.552756,0 -17.882112,-8.332145 -17.882112,-8.597925 0,-0.94842 7.449048,-6.08281 12.567708,-8.66252 1.309687,-0.66006 2.738437,-1.390986 3.175,-1.62419 0.436562,-0.233203 1.627187,-0.796307 2.645833,-1.251087 1.018646,-0.45478 2.804583,-1.270334 3.96875,-1.812292 1.164167,-0.541957 2.71198,-1.237711 3.439584,-1.546159 0.727605,-0.308448 2.573072,-1.10927 4.101041,-1.779736 1.527969,-0.670466 4.087812,-1.696638 5.688542,-2.280481 1.60073,-0.583844 3.446202,-1.282459 4.101042,-1.55236 2.14757,-0.885149 12.156552,-4.373041 14.419792,-5.025017 0.43656,-0.125762 1.74625,-0.534405 2.91042,-0.907955 3.25755,-1.04526 7.81368,-0.325177 14.155209,2.236556 0.65483,0.264532 2.44078,0.979116 3.96875,1.588017 1.52796,0.608901 3.49249,1.463826 4.36561,1.900143 0.87313,0.436318 1.7661,0.879464 1.98438,0.984952 6.56662,3.173421 9.99403,5.62735 11.04842,7.910629 0.61076,1.322591 0.81597,2.008733 1.79679,5.999633 0.56264,2.28932 1.40604,6.955022 1.86294,10.307382 0.44757,3.28378 0.74276,4.065761 0.52813,1.398881 -0.3774,-4.68929 -2.1444,-13.171096 -3.53829,-16.98501 l -0.67231,-1.838648 -1.03921,-1.127579 c -2.51273,-2.725994 -21.62382,-11.995651 -24.73131,-11.995651 -0.14691,0 -1.02226,-0.241589 -1.945099,-0.536401 -0.92284,-0.294811 -2.69468,-0.60439 -3.93723,-0.68833 z m 29.041119,12.234912 c -0.31983,-0.0091 -3.03436,0.974572 -4.77438,1.730127 -0.47788,0.207506 -1.00067,0.377238 -1.16169,0.377238 -0.16103,0 -0.78226,0.223477 -1.38028,0.49661 -0.59802,0.273133 -1.80165,0.762174 -2.67477,1.086756 -1.5942,0.592638 -5.89047,2.255329 -6.87917,2.662369 -0.29104,0.11982 -1.12448,0.470561 -1.85208,0.779281 -0.72761,0.30872 -3.585109,1.462091 -6.349999,2.563151 -2.7649,1.10106 -5.92005,2.416919 -7.01146,2.924369 -3.32451,1.54574 -13.272807,6.562064 -14.761887,7.443474 -0.77039,0.45601 -1.474662,0.829406 -1.564762,0.829406 -0.3317,0 -7.485236,4.330298 -8.398454,5.083928 l -0.251148,0.207739 h 0.323495 c 0.178133,0 0.90552,-0.386946 1.616439,-0.859896 2.318378,-1.54231 5.217403,-3.271299 8.219653,-4.901509 0.50933,-0.27656 3.902608,-1.996743 7.540624,-3.823023 6.57574,-3.30101 9.10626,-4.44954 14.41979,-6.54482 1.52797,-0.60252 3.016249,-1.207334 3.307289,-1.344104 0.29104,-0.13676 1.30308,-0.539339 2.24896,-0.894519 0.94589,-0.35518 3.02948,-1.195903 4.63021,-1.868103 1.60073,-0.6722 3.62479,-1.470866 4.49792,-1.774569 0.87312,-0.303702 2.00421,-0.757633 2.51354,-1.008724 0.50932,-0.25109 1.58088,-0.663282 2.38125,-0.916223 0.80036,-0.252941 1.93946,-0.685884 2.53111,-0.962215 0.59165,-0.276331 1.24649,-0.506397 1.45521,-0.511597 0.48333,-0.01194 1.81444,-0.762576 1.37459,-0.775146 z m 2.69596,2.382283 c -0.29832,-0.0058 -0.65551,0.0983 -0.79375,0.230994 -0.13825,0.132694 -1.50182,0.773736 -3.02979,1.424719 -2.96215,1.262012 -3.65087,1.563562 -6.35,2.780192 -0.94588,0.42636 -3.86292,1.697858 -6.48229,2.825668 -2.61938,1.12782 -5.47688,2.374907 -6.35,2.771407 -0.87313,0.39651 -2.778129,1.228739 -4.233329,1.849499 -1.45521,0.62076 -4.25318,1.8189 -6.21771,2.66237 -1.96453,0.84346 -4.94109,2.093518 -6.61458,2.777608 -1.67349,0.68409 -3.344342,1.401378 -3.713472,1.594218 -0.36912,0.19285 -1.277455,0.589203 -2.017965,0.881083 -0.7405,0.29188 -1.926635,0.790683 -2.636015,1.107943 -2.50865,1.12193 -3.045078,1.348109 -6.214608,2.622579 -3.618049,1.45483 -4.52768,2.167627 -5.020365,3.934127 -0.189314,0.67878 -0.498794,1.532208 -0.687813,1.896008 -0.189019,0.3638 -0.34482,0.821736 -0.345716,1.018026 -8.97e-4,0.19629 -0.168255,0.732075 -0.37207,1.190625 -0.203815,0.45856 -0.428018,1.072184 -0.498678,1.363224 -0.07066,0.29105 -0.45124,1.600727 -0.845426,2.910417 -0.394186,1.30969 -0.874196,2.976556 -1.066602,3.704166 -0.9548,3.61067 -1.716691,6.633498 -1.716691,6.811988 0,0.34316 0.440533,0.216882 0.457853,-0.131258 0.01728,-0.3474 0.669856,-3.113043 1.264523,-5.357813 0.757405,-2.85907 1.024038,-3.714341 1.234033,-3.955831 0.120213,-0.13824 0.21916,-0.49543 0.219625,-0.79375 4.65e-4,-0.29831 0.543982,-2.149431 1.207678,-4.113961 0.663696,-1.96453 1.343853,-3.977668 1.511536,-4.473628 0.403014,-1.192 1.746398,-2.587641 2.71818,-2.823601 0.428759,-0.10411 1.493651,-0.512495 2.366781,-0.907955 1.92219,-0.87061 9.844374,-4.277526 13.493752,-5.802746 3.15432,-1.31833 3.36352,-1.406642 4.89479,-2.072742 1.53322,-0.66694 2.09558,-0.909966 7.80521,-3.368786 2.61937,-1.12802 5.476869,-2.377909 6.349999,-2.777609 0.87312,-0.3997 2.65906,-1.169486 3.96875,-1.711006 1.30968,-0.54152 3.09562,-1.315759 3.96875,-1.720309 0.87312,-0.40456 2.48046,-1.114315 3.57187,-1.577165 1.09141,-0.46285 2.2225,-0.951531 2.51354,-1.085721 0.29104,-0.13418 1.9208,-0.833493 3.62149,-1.554427 1.70069,-0.720931 3.4271,-1.492713 3.83646,-1.714624 l 0.74414,-0.403077 z m 0.37672,2.286166 c -0.5012,-0.0093 -1.10994,0.229549 -1.89962,0.586527 -0.61048,0.27597 -1.88391,0.823944 -2.8298,1.218014 -0.94588,0.39407 -1.8569,0.828359 -2.02469,0.964799 -0.1678,0.13644 -0.64404,0.352827 -1.05833,0.481107 -0.65004,0.20129 -3.96023,1.620256 -6.97942,2.992066 -2.5635,1.16477 -4.21773,1.885651 -5.40587,2.355411 -0.72228,0.28557 -1.61525,0.675141 -1.98438,0.865581 -0.36913,0.19044 -0.96893,0.473085 -1.33273,0.628385 -0.3638,0.1553 -1.24831,0.540158 -1.965769,0.854728 -0.71745,0.31457 -2.97965,1.282017 -5.02709,2.150257 -2.04744,0.86825 -4.13949,1.758464 -4.64881,1.978174 -0.50932,0.21971 -1.31537,0.567709 -1.79162,0.773079 -0.47625,0.20536 -0.97572,0.662232 -1.11001,1.015442 l -0.24443,0.642338 0.76275,2.600358 c 0.855,2.91483 1.58645,5.807838 2.26291,8.950358 0.25059,1.16417 0.57973,2.195883 0.73122,2.292883 0.24762,0.15859 1.01214,-0.08538 3.49022,-1.112593 1.99997,-0.82903 2.61207,-1.086514 6.217709,-2.615344 2.11005,-0.89468 4.19365,-1.78935 4.63021,-1.98851 1.71994,-0.78463 3.28622,-1.465927 5.81102,-2.528527 1.44962,-0.6101 3.11649,-1.327145 3.70416,-1.593185 0.58767,-0.26604 1.96112,-0.860983 3.05253,-1.321883 1.0914,-0.46091 2.46062,-1.052152 3.04271,-1.314132 2.13067,-0.95892 7.49986,-3.180167 7.68687,-3.180167 0.93079,0 1.13088,-2.168374 0.50022,-5.418274 -1.55053,-7.990184 -2.08636,-10.249105 -3.58996,-10.276892 z m 0.35037,0.223759 0.45165,0.558105 c 0.86993,1.07433 2.83411,10.874148 2.69906,13.466878 -0.0419,0.80391 -1.83042,1.690748 -11.78223,5.840988 -1.8809,0.78439 -3.43351,1.426269 -3.44991,1.426269 -0.0275,0 -0.83359,-3.674412 -1.07384,-4.894792 -0.10929,-0.55517 -0.72051,-2.614788 -1.37408,-4.630208 -0.21235,-0.65484 -0.69347,-1.940096 -1.06918,-2.856156 l -0.68316,-1.666049 0.37568,-0.361218 c 0.20652,-0.1988 1.71209,-0.908781 3.34605,-1.577681 1.63396,-0.6689 3.83661,-1.617835 4.89479,-2.108915 2.94419,-1.36633 5.52048,-2.472366 6.64663,-2.853056 z m -16.8615,7.361824 c 0.81024,0.31092 3.42859,8.5892 4.21731,13.33407 l 0.14263,0.859379 -0.95137,0.397392 c -1.33877,0.55937 -1.21431,0.688482 -1.66398,-1.718758 -0.83993,-4.49648 -1.9877,-8.423999 -3.20394,-10.962639 l -0.49867,-1.040246 0.817,-0.496611 c 0.44928,-0.27321 0.96276,-0.440987 1.14102,-0.372587 z m -2.5244,0.989604 0.53847,0.756543 c 0.29627,0.41607 0.53847,0.868543 0.53847,1.005623 0,0.13708 0.17629,0.601725 0.39119,1.032495 0.2149,0.43078 0.43111,1.014796 0.48111,1.297596 0.0499,0.28281 0.28671,1.169028 0.52606,1.969388 0.94733,3.16773 1.45825,5.195925 1.49965,5.953125 0.0238,0.43656 0.0661,1.142327 0.094,1.568897 l 0.0507,0.775663 -2.11667,0.906921 c -1.16417,0.49872 -2.3259,1.014474 -2.58175,1.146184 -0.25586,0.13172 -1.38549,0.605242 -2.51044,1.052132 -1.12496,0.44688 -2.37425,0.981028 -2.77606,1.187008 -0.40182,0.20598 -1.076499,0.553249 -1.499139,0.771529 -0.42263,0.21828 -0.89988,0.396875 -1.06091,0.396875 -0.16104,0 -0.79751,0.22258 -1.41439,0.49506 -0.61688,0.27248 -1.98589,0.867787 -3.04219,1.322917 -2.38996,1.02975 -2.33594,1.033359 -2.73265,-0.164331 -0.30857,-0.93156 -0.45018,-1.53766 -1.37666,-5.88698 -0.2015,-0.94588 -0.69966,-2.891697 -1.10691,-4.323767 l -0.74052,-2.603975 0.63149,-0.59738 c 0.34725,-0.3288 1.52393,-0.968382 2.61534,-1.421102 1.0914,-0.45272 4.84187,-2.058831 8.33437,-3.569291 3.492499,-1.51047 6.554279,-2.819566 6.803719,-2.908866 z m -72.140813,2.582271 0.665076,0.166915 c 0.365716,0.09179 3.17698,1.396518 6.247681,2.899048 9.06298,4.43463 12.496952,5.907335 18.812288,8.067725 3.34558,1.14448 3.586091,1.657434 2.41794,5.157824 -0.343594,1.02959 -0.881371,2.705681 -1.195276,3.724321 -0.313905,1.01865 -0.702505,2.258834 -0.863513,2.755904 -0.161009,0.49707 -0.629297,2.147947 -1.040763,3.669027 -0.411467,1.52109 -0.951104,2.989566 -1.198893,3.263366 -0.612798,0.67714 -0.663708,0.6689 -3.411162,-0.56379 -0.582083,-0.26117 -1.713176,-0.737403 -2.513541,-1.058333 -1.548303,-0.62084 -1.904474,-0.777687 -5.060673,-2.223637 -1.109903,-0.50848 -2.836309,-1.297952 -3.836459,-1.754932 -1.000149,-0.45699 -1.968628,-0.954428 -2.152323,-1.105358 l -0.33383,-0.274402 0.273368,-0.329696 0.273369,-0.329696 -0.2651,-0.698148 c -0.145997,-0.384 -1.040396,-1.432127 -1.987476,-2.329057 -0.94708,-0.89694 -1.792982,-1.853468 -1.879472,-2.125968 l -0.157096,-0.495577 -1.102258,0.0801 -1.102259,0.08062 -0.08423,1.026811 c -0.105678,1.28909 0.18657,1.581103 1.602486,1.603003 l 1.12758,0.01757 -0.08268,0.52865 c -0.04565,0.29051 -0.08332,0.729778 -0.08371,0.976168 l -10e-4,0.447518 -0.423747,-0.162264 c -0.847816,-0.32534 -8.595193,-4.360034 -9.447485,-4.920114 -0.481751,-0.31658 -1.095645,-0.705953 -1.364775,-0.865063 l -0.489375,-0.289388 -0.04806,-1.020093 -0.04806,-1.020609 1.153418,-2.394686 c 1.522183,-3.1599 3.258526,-5.728719 5.646167,-8.354529 z m 46.791976,7.903394 -3.770312,1.657263 c -2.07364,0.91155 -4.313218,1.838079 -4.976958,2.058789 -0.66375,0.22071 -1.327555,0.494758 -1.474845,0.608748 -0.14729,0.11399 -0.943719,0.459826 -1.769918,0.768946 l -1.502234,0.562239 -0.809769,0.922425 c -0.445341,0.50721 -0.80977,1.148879 -0.80977,1.426269 0,0.27739 -0.103752,0.568689 -0.230477,0.646989 -0.126726,0.07832 -0.304051,0.511522 -0.394291,0.962732 -0.09024,0.45121 -0.323063,1.198 -0.517281,1.65933 -0.402448,0.95593 -1.234709,3.532762 -1.894975,5.865792 -0.2471,0.87313 -0.73936,2.512982 -1.093473,3.644222 l -0.643889,2.056722 0.267684,0.499711 c 0.147124,0.2749 0.417428,0.561671 0.600997,0.637171 0.674851,0.27758 8.26409,-2.420733 9.85883,-3.505213 0.14552,-0.09896 0.740827,-0.336156 1.322917,-0.527616 0.58208,-0.19146 1.713171,-0.620877 2.513541,-0.953947 0.80036,-0.33307 2.110057,-0.868272 2.910417,-1.189592 1.48216,-0.59505 2.46899,-1.011401 4.075204,-1.719791 0.49493,-0.21828 1.01786,-0.396875 1.1622,-0.396875 0.68629,0 0.78187,-2.84977 0.18655,-5.55625 -0.20806,-0.94589 -0.38257,-2.099608 -0.38757,-2.563668 -0.0104,-0.94695 -1.909338,-6.851167 -2.343008,-7.284827 z m -0.0021,0.603064 c 0.2097,0 1.031658,1.976405 1.199928,2.885095 0.0648,0.34993 0.22062,0.828284 0.34623,1.062984 0.34657,0.64758 1.34259,6.807375 1.40819,8.708512 l 0.0579,1.676901 -0.92604,0.491443 c -1.09912,0.5833 -3.36621,1.579231 -3.59513,1.579231 -0.08873,0 -0.536221,0.174217 -0.994771,0.387057 -0.45856,0.21284 -2.143754,0.913728 -3.744474,1.557528 -1.60073,0.6438 -3.862916,1.554535 -5.027084,2.024165 -1.164167,0.46964 -2.890573,1.213429 -3.836458,1.653129 -0.945886,0.4397 -2.210148,0.856759 -2.809648,0.926559 l -1.089856,0.127124 -0.186552,-0.30179 c -0.219211,-0.35469 -0.02412,-1.406337 0.666626,-3.595647 0.275479,-0.87313 0.926821,-3.01625 1.447457,-4.7625 1.103749,-3.70205 1.780872,-5.574813 2.678907,-7.408333 l 0.648022,-1.322917 0.976168,-0.44235 c 0.536934,-0.2431 2.285854,-0.979986 3.886584,-1.637626 1.60073,-0.65765 4.216849,-1.738837 5.813599,-2.402437 1.59675,-0.66361 2.983132,-1.206128 3.080432,-1.206128 z m 41.839307,14.880745 c 4.01526,0.0018 5.69865,7.18528 2.11512,12.588379 l -0.9338,1.407666 -0.33589,-0.349333 c -0.18479,-0.19213 -0.55496,-0.719868 -0.82217,-1.172538 -1.77904,-3.01382 -2.62808,-4.327518 -2.80087,-4.331518 -0.42841,-0.01094 -0.13289,0.601015 1.52136,3.150195 2.05065,3.16006 2.05558,3.202842 0.49247,4.278292 l -1.22731,0.844393 -1.74925,0.09147 -1.74925,0.09147 -1.59886,-0.753959 -1.59887,-0.753959 -1.13327,-1.287777 -1.13378,-1.287776 0.57878,-0.468706 c 0.31838,-0.25781 0.73429,-0.468705 0.92397,-0.468705 0.34122,0 1.97766,-2.411741 1.97766,-2.914551 0,-0.14334 0.10806,-0.260449 0.23978,-0.260449 0.1321,0 0.17523,0.705257 0.0966,1.571997 -0.22463,2.47729 0.98694,5.836336 2.10478,5.836336 0.16348,0 0.0519,-0.267892 -0.24753,-0.595312 -0.29938,-0.32742 -0.74591,-0.994667 -0.9927,-1.482597 l -0.44907,-0.887284 0.0119,-2.023133 c 0.0273,-4.82742 2.63447,-8.612729 6.57014,-9.539469 l 1.00045,-0.235645 -0.85059,-0.02687 c -1.61878,-0.05056 -3.67064,1.248145 -5.14025,3.254065 l -0.75603,1.031978 v -0.551388 c 0,-1.31559 1.67681,-3.76101 2.57865,-3.76101 0.19677,0 0.85025,-0.238127 1.45263,-0.529167 0.66024,-0.318992 1.28157,-0.465349 1.85518,-0.465088 z m -98.849264,5.845638 c 0.345013,-0.03056 0.878901,0.09439 1.505851,0.434599 2.891617,1.56912 4.953115,2.658415 6.5257,3.447335 0.945886,0.47453 1.898386,0.95872 2.116667,1.07642 2.25133,1.21399 12.516303,6.065263 12.833842,6.065263 0.08556,0 1.013076,0.399047 2.061373,0.8867667 1.048298,0.48771 2.739264,1.214032 3.75791,1.614372 1.788137,0.70276 2.729231,1.0907 4.573364,1.88619 0.47788,0.20614 1.22202,0.375171 1.653646,0.375171 0.89536,0 1.027631,0.380498 0.272852,0.784448 -0.867494,0.46427 -2.085886,0.208842 -4.912362,-1.028878 -1.555143,-0.681 -5.137655,-2.13682 -5.258077,-2.13682 -0.07672,0 -1.722846,-0.723898 -3.658175,-1.6086877 -1.93533,-0.88479 -4.29307,-1.962516 -5.238956,-2.394686 -0.945885,-0.43216 -1.898386,-0.899516 -2.116667,-1.038696 -0.218281,-0.13918 -0.575469,-0.323477 -0.79375,-0.409277 -1.754743,-0.68986 -11.814579,-5.919247 -13.030729,-6.773747 -0.917956,-0.644981 -0.86751,-1.128833 -0.292489,-1.179773 z m 29.504659,5.993433 -0.669726,0.254765 c -0.36824,0.14001 -0.859602,0.621992 -1.091923,1.071252 l -0.422197,0.817004 0.07855,1.482081 0.07906,1.481563 3.307292,1.4200677 3.307292,1.420069 1.319299,-0.130225 c 1.528585,-0.15112 2.657977,-0.877143 2.630847,-1.690853 -0.0104,-0.3117197 -0.04016,-1.3998067 -0.06615,-2.4184567 l -0.04754,-1.852083 h -1.931148 c -1.062302,0 -2.044568,-0.100672 -2.182813,-0.223242 -0.138245,-0.12256 -1.165136,-0.539576 -2.281514,-0.927076 z m 0.21239,0.585494 c 0.556482,0.04462 1.344429,0.32785 2.656169,0.872815 l 2.229321,0.926041 h 1.531173 1.531173 v 2.130103 2.1301017 l -0.917257,0.38344 c -1.62184,0.67765 -3.063948,0.439271 -6.358785,-1.051099 -0.436563,-0.1974697 -1.211168,-0.5355087 -1.721859,-0.7508587 l -0.928625,-0.39119 0.06925,-1.539958 0.06925,-1.539441 0.574642,-0.611849 c 0.384211,-0.408975 0.709074,-0.602728 1.265555,-0.558105 z m 23.736019,6.3406977 c 0.415224,-0.01008 0.76591,0.156419 1.420585,0.490409 1.4393,0.73428 1.319786,0.918193 -0.606164,0.933793 l -1.653646,0.01344 -0.79375,0.422714 c -1.36475,0.72659 -3.294862,2.919135 -4.137732,4.699965 l -0.808736,1.70894003 -0.07338,2.51715997 -0.07338,2.51664 -0.153996,0.13333 c 0.02674,0.0649 0.06186,0.12938 0.0925,0.19068 0.01044,0.0209 0.03347,0.0339 0.04393,0.0548 0.0067,0.0135 0.0072,0.0288 0.01085,0.0434 0.01458,0.0256 0.02935,0.0515 0.04393,0.077 0.02892,0.0482 0.06825,0.0814 0.09819,0.13126 0.01678,0.028 0.02683,0.0595 0.04393,0.0873 0.0071,0.0115 0.01618,0.0218 0.02377,0.0331 0.262769,0.0499 0.486124,0.39633 0.888318,1.08262 0.37313,0.6367 0.920396,1.22081 1.215946,1.29811 0.67983,0.17778 0.701643,-0.23254 0.03152,-0.59117 -0.27803,-0.1488 -0.761896,-0.68547 -1.075386,-1.1927 l -0.569991,-0.92242 0.160196,-0.27285 c -0.0082,-0.10326 -0.03239,-0.20662 -0.04031,-0.30954 -0.0034,-0.0436 0.01201,-0.0892 0,-0.13126 -0.0045,-0.0157 -0.03946,-0.006 -0.04341,-0.0222 -0.04011,-0.16043 0.02291,-0.11425 0,-0.2403 -0.129746,-0.45411 0.0045,0.0583 -0.02894,-0.20257 l -0.145728,0.12299 -0.08061,-1.35185 c -0.04437,-0.74343 0.05161,-1.98937997 0.213424,-2.76882997 l 0.294555,-1.41697003 1.027845,-1.53892 c 1.054063,-1.578216 2.157101,-2.752674 2.758488,-3.147091 0.02305,-0.03598 0.03422,-0.03465 0.04754,-0.02532 0.04238,-0.02571 0.08108,-0.04603 0.117305,-0.06253 0.03162,-0.02769 0.06606,-0.05251 0.10542,-0.06563 0.0066,-0.0022 0.01358,-0.0025 0.02067,-0.0021 0.02528,-0.0054 0.04212,9.93e-4 0.06201,0.0031 0.0016,-5.49e-4 0.0036,-2.38e-4 0.0052,-10e-4 0.04125,-0.02061 0.0051,-0.105675 0.04341,-0.131258 0.05575,0 0.08112,0.0011 0.09715,0.0026 -0.01855,-0.0048 -0.03869,-0.01713 -0.0093,-0.04651 0.03677,-0.03677 0.214255,0.01609 0.262517,0 0.0587,-0.01958 0.07977,-0.09694 0.131258,-0.131258 0.02625,-0.01749 0.109382,0.02188 0.131258,0 0.02307,-0.02305 0.01628,-0.06924 0.04341,-0.08733 0.04375,-0.02917 0.08751,0.01458 0.131258,0 0.17566,-0.05855 0.349466,-3.5e-5 0.525033,-0.04393 0.07619,-0.01905 0.144599,-0.0625 0.219108,-0.08733 0.06901,-0.02301 0.164768,-0.0237 0.263033,-0.0186 0.152627,-0.09883 0.398707,-0.144986 0.784965,-0.132808 0.235851,0.0074 0.520443,0.03455 0.859896,0.07958 l 1.324984,0.1757 0.557588,1.488281 0.557589,1.488284 -0.01189,1.60145 c -0.02327,3.21141003 -1.236754,6.17611 -3.463354,8.46046 l -1.297079,1.33067 -1.273824,0.4563 c -1.95826,0.70191 -2.705046,0.60747 -5.764506,-0.73018 l -1.051098,-0.45941 0.189652,-0.1695 c -0.02507,-0.0212 -0.05021,-0.0423 -0.07648,-0.062 -0.01701,-0.0127 -0.03748,-0.0207 -0.05478,-0.0331 -0.03572,-0.0255 -0.05629,-0.0671 -0.08733,-0.0982 -0.0173,-0.0173 -0.04465,-0.0205 -0.06563,-0.0331 -0.02211,-0.0133 -0.0352,-0.038 -0.05478,-0.0548 -0.01,-0.009 -0.02132,-0.0157 -0.03307,-0.0217 -0.0032,-0.002 -0.0083,0.003 -0.01085,0 -0.01153,-0.0116 -0.0081,-0.0349 -0.0217,-0.0439 -0.0061,-0.004 -0.0147,0.002 -0.0217,0 -0.01888,-0.005 -0.03774,-0.0117 -0.05478,-0.0217 -0.0011,-6e-4 -0.0016,-0.002 -0.0026,-0.003 -0.02149,0.01 -0.08507,0.0595 -0.09508,0.0589 -0.310895,-0.0177 -1.27654,-0.95612 -1.593701,-1.54874 l -0.326078,-0.60927 0.506946,-0.57051 c 0.27872,-0.3137 0.729028,-1.3439 1.000455,-2.28978 1.364286,-4.75436 3.932589,-7.991851 7.490499,-9.441281 0.91325,-0.37206 1.393451,-0.558875 1.808675,-0.568958 z"
       sodipodi:nodetypes="csssssssscssccccccssccsssscccssssccccccccccccccccccccccccssscccscccccccssssscccccccccccsssssssssccccscsssssssccccccscccccscccccscccscccsssccssssssccsscccccccssssscccccccsssccccccssssssscscsssscccccsccscsssssscccsssccccccssscccssssssscccsssssssssssssssssssssscccsscccssssssssssccscsssssssssscccsssssssssscssssssssssssssssssssssssssccccssssssssssssccsscssssssssscccssssscccssccscccscccsccsscsccccssssssssssccsscccsssssssssssscccccscccccccccccscccccccccsscccssssscccsssssssscsccssccsssssscccsscccssccscccscsscccccccsssscscccccccscsssssssscssssssssssscsscccccccccsccssccscccccccscccccsscsccccccccsccccscsssccccscccccccscccscccccsssssssscccccccccccccccssccccccccsccsscc" /></g><g
     id="g22"
     transform="matrix(1.187513,0,0,1.1876611,-15.367974,-2.8903377)"
     style="stroke-width:1.34727;stroke-dasharray:none"><g
       id="g21"
       style="display:inline;stroke-width:0.957345;stroke-dasharray:none"
       transform="matrix(1.4070716,0,0,1.4075242,-34.974476,-23.520844)"><path
         style="fill:none;stroke:#000000;stroke-width:0.957345;stroke-linecap:round;stroke-linejoin:round;stroke-dasharray:none;stroke-opacity:1;paint-order:stroke fill markers"
         d="m 111.25125,25.12125 c 0,0 -18.592367,6.207645 -35.887501,13.983751 C 67.381875,42.69375 58.824413,47.619798 52.856718,52.500938 48.200624,56.522812 44.488124,61.99875 43.064998,68.31 42.365588,78.941022 41.8275,84.76875 41.8275,84.76875 v 1.856248 c 0,5.445 2.103748,6.435002 10.271249,10.02375 v 0 C 56.925,99 68.805,103.95 73.13625,106.1775 c 4.33125,2.2275 9.03375,2.97 11.75625,1.2375 1.98,-5.445 4.33125,-9.405 6.93,-10.89 1.304765,-0.74558 2.578336,-1.335187 3.773726,-1.815806 1.185512,-0.476648 2.294131,-0.846102 3.280024,-1.154194 1.98,-0.61875 2.10375,1.2375 2.7225,2.7225 0.61875,1.485 1.2375,3.7125 4.2075,2.7225 2.97,-0.99 20.295,-9.03375 23.5125,-10.1475 3.2175,-1.11375 4.33125,-4.82625 5.07375,-6.55875 0.7425,-1.7325 0.86625,-3.09375 2.84625,-4.455 1.98,-1.36125 4.455,-1.85625 6.435,-2.84625 1.98,1.2375 2.59875,4.33125 2.59875,5.6925 0,1.36125 3.7125,-0.86625 4.2075,-2.35125 0.495,-1.485 -0.2475,-13.365 -0.7425,-18.43875 -0.37125,-6.435 -2.97,-17.20125 -4.08375,-20.295 -6.1875,-5.94 -31.9275,-15.22125 -34.4025,-14.47875 z"
         id="path4"
         sodipodi:nodetypes="cccccscsscsssssssscssccc" /><path
         style="fill:none;stroke:#000000;stroke-width:0.957345;stroke-linecap:round;stroke-linejoin:round;stroke-dasharray:none;stroke-opacity:1;paint-order:stroke fill markers"
         d="m 52.346248,52.717498 c 0,0 21.037502,9.776251 24.873752,11.137501 3.836249,1.361249 4.578749,2.59875 3.341248,5.81625 -1.237499,3.2175 -2.722499,8.91 -3.464999,11.137501 -0.742501,2.2275 -0.61875,3.341248 -3.341249,1.979998 -2.722501,-1.361249 -27.10894,-11.234489 -30.81375,-14.602499 1.361251,-8.04375 9.404998,-15.468751 9.404998,-15.468751 z"
         id="path5"
         sodipodi:nodetypes="csssscc" /><path
         style="fill:none;stroke:#000000;stroke-width:0.957345;stroke-linecap:round;stroke-linejoin:round;stroke-dasharray:none;stroke-opacity:1;paint-order:stroke fill markers"
         d="m 77.806397,86.005661 c 0,0 4.487353,-15.468161 5.229853,-17.695661 0.742498,-2.227501 1.856248,-3.712501 4.2075,-4.57875 2.351248,-0.866251 55.935,-23.883752 55.935,-23.883752"
         id="path6"
         sodipodi:nodetypes="cssc" /><path
         style="fill:none;stroke:#000000;stroke-width:0.957345;stroke-linecap:round;stroke-linejoin:round;stroke-dasharray:none;stroke-opacity:1;paint-order:stroke fill markers"
         d="m 83.747812,71.218123 c 0.866248,-2.227498 1.546874,-4.145624 2.382187,-4.516875 2.253185,-1.001417 10.735314,-4.82625 13.117499,-5.321249 3.217502,5.321249 3.341252,13.98375 3.093752,14.850001 -1.98,0.7425 -21.807288,11.273997 -22.367813,8.724375 1.249714,-6.227999 3.774375,-13.736252 3.774375,-13.736252 z"
         id="path7"
         sodipodi:nodetypes="cscccc" /><path
         style="font-variation-settings:normal;fill:none;fill-opacity:1;stroke:#000000;stroke-width:0.957345;stroke-linecap:round;stroke-linejoin:round;stroke-miterlimit:4;stroke-dasharray:none;stroke-dashoffset:0;stroke-opacity:1;paint-order:stroke fill markers;stop-color:#000000"
         d="M 83.654267,63.353232 C 102.0302,52.15266 121.36869,44.364764 140.18215,37.539414"
         id="path8" /><path
         style="font-variation-settings:normal;fill:none;fill-opacity:1;stroke:#000000;stroke-width:0.957345;stroke-linecap:round;stroke-linejoin:round;stroke-miterlimit:4;stroke-dasharray:none;stroke-dashoffset:0;stroke-opacity:1;paint-order:stroke fill markers"
         d="m 105.72493,61.245036 c -0.358,-1.094974 0.16841,-2.357942 1.03051,-2.879559 1.94219,-1.175128 15.6844,-7.022754 17.69701,-7.810294 2.80014,4.550233 4.17911,11.397977 4.17911,14.548138 -3.32517,1.837592 -17.5884,7.525383 -18.55095,7.962905 -0.96254,0.437523 -1.40007,-0.437522 -1.66258,-1.312566 -0.26251,-0.875046 -2.6931,-10.508624 -2.6931,-10.508624 z"
         id="path9"
         sodipodi:nodetypes="csccssc" /><path
         style="font-variation-settings:normal;fill:none;fill-opacity:1;stroke:#000000;stroke-width:0.957345;stroke-linecap:round;stroke-linejoin:round;stroke-miterlimit:4;stroke-dasharray:none;stroke-dashoffset:0;stroke-opacity:1;paint-order:stroke fill markers"
         d="m 124.60636,50.490074 c 4.64454,-2.279762 16.53834,-7.437879 17.58839,-7.962905 1.05006,-0.525026 2.01261,-0.612531 2.45013,0.350017 0.43752,0.962549 2.45012,10.938058 2.53763,11.988112 0.0875,1.050055 0.0875,2.187612 -0.78754,2.625135 -0.87505,0.437521 -18.02592,7.700391 -18.02592,7.700391"
         id="path10"
         sodipodi:nodetypes="cssssc" /><path
         style="font-variation-settings:normal;fill:none;fill-opacity:1;stroke:#000000;stroke-width:0.957345;stroke-linecap:round;stroke-linejoin:round;stroke-miterlimit:4;stroke-dasharray:none;stroke-dashoffset:0;stroke-opacity:1;paint-order:stroke fill markers"
         d="m 127.01273,49.352517 c 2.80014,5.950304 3.8502,9.58174 4.59398,14.438235"
         id="path11"
         sodipodi:nodetypes="cc" /><path
         style="font-variation-settings:normal;fill:none;fill-opacity:1;stroke:#000000;stroke-width:0.957345;stroke-linecap:round;stroke-linejoin:round;stroke-miterlimit:4;stroke-dasharray:none;stroke-dashoffset:0;stroke-opacity:1;paint-order:stroke fill markers"
         d="m 79.81875,90.46125 c 0,0 -1.423125,0 -1.980001,0.123748 -0.556874,0.123751 -1.454063,-0.09281 -1.979999,-0.324842 -0.525939,-0.232032 -2.970001,-1.206564 -3.619688,-1.37672 -0.649687,-0.170156 -1.454062,0.139218 -1.763437,0.448593 -0.309375,0.309377 -0.680625,0.773438 -0.727033,1.299377 -0.04641,0.525936 0,2.799842 0,2.799842 0,0 5.042813,2.258438 6.249377,2.521407 1.20656,0.26297 3.619687,-0.510468 3.944529,-0.804375 0.324845,-0.293905 -0.123748,-4.68703 -0.123748,-4.68703 z"
         id="path12" /><path
         style="font-variation-settings:normal;fill:none;fill-opacity:1;stroke:#000000;stroke-width:0.957345;stroke-linecap:round;stroke-linejoin:round;stroke-miterlimit:4;stroke-dasharray:none;stroke-dashoffset:0;stroke-opacity:1;paint-order:stroke fill markers"
         d="m 106.425,81.056249 c 0.55688,7.301251 0.12375,13.365001 0.12375,17.819999"
         id="path13" /><path
         style="font-variation-settings:normal;fill:none;fill-opacity:1;stroke:#000000;stroke-width:0.957345;stroke-linecap:round;stroke-linejoin:round;stroke-miterlimit:4;stroke-dasharray:none;stroke-dashoffset:0;stroke-opacity:1;paint-order:stroke fill markers"
         d="m 84.100383,107.8424 c 2.395981,3.28482 5.449483,4.53632 7.660535,4.82752 0.494021,0.0746 2.278785,-0.14139 3.449236,-0.8618 3.490368,-2.14831 4.915646,-6.83673 4.903596,-9.83812 -0.0155,-3.85172 -1.13194,-6.007735 -5.445002,-4.888127 -4.637906,2.07867 -8.059219,10.302187 -3.511404,14.463287"
         id="path14"
         sodipodi:nodetypes="ccsscc" /><path
         style="font-variation-settings:normal;fill:none;fill-opacity:1;stroke:#000000;stroke-width:0.957345;stroke-linecap:round;stroke-linejoin:round;stroke-miterlimit:4;stroke-dasharray:none;stroke-dashoffset:0;stroke-opacity:1;paint-order:stroke fill markers"
         d="m 42.045895,81.729169 c 6.87532,4.141449 22.328631,11.469118 33.470458,16.100822 0.678171,0.281919 1.472212,0.428648 2.187609,0.262511 0.947547,-0.220049 0.871083,1.010716 -0.568777,1.443826 -0.434391,0.07733 -0.928689,-0.0171 -1.356321,-0.175011 C 64.157837,95.069971 48.669629,87.341137 41.925254,83.814262"
         id="path15"
         sodipodi:nodetypes="csscsc" /><path
         style="font-variation-settings:normal;fill:none;fill-opacity:1;stroke:#000000;stroke-width:0.957345;stroke-linecap:round;stroke-linejoin:round;stroke-miterlimit:4;stroke-dasharray:none;stroke-dashoffset:0;stroke-opacity:1;paint-order:stroke fill markers"
         d="m 141.66973,77.791468 c -6.25657,-0.153134 -10.12865,9.69112 -6.03781,14.175724"
         id="path16"
         sodipodi:nodetypes="cc" /><path
         style="font-variation-settings:normal;opacity:1;fill:none;fill-opacity:1;stroke:#000000;stroke-width:0.957345;stroke-linecap:round;stroke-linejoin:round;stroke-miterlimit:4;stroke-dasharray:none;stroke-dashoffset:0;stroke-opacity:1;paint-order:stroke fill markers"
         d="m 42.57,75.425625 c 0,0 3.403124,1.608748 4.454998,2.289373 1.051875,0.680627 1.036828,1.607799 1.058704,2.395339 l -0.0875,2.997028 c 0,0 -0.90279,-0.104189 -1.35632,-0.218761 -1.288768,-0.642759 -4.375223,-2.433558 -4.375223,-2.433558"
         id="path18"
         sodipodi:nodetypes="cscccc" /><path
         style="font-variation-settings:normal;display:inline;fill:none;fill-opacity:1;stroke:#000000;stroke-width:0.957345;stroke-linecap:round;stroke-linejoin:round;stroke-miterlimit:4;stroke-dasharray:none;stroke-dashoffset:0;stroke-opacity:1;paint-order:stroke fill markers"
         d="m 129.80254,88.675825 c 1.75009,3.587681 4.24642,4.601154 6.61692,4.778942 7.00036,0.525027 14.00071,-15.750805 4.28772,-17.063371"
         id="path17"
         sodipodi:nodetypes="csc" /></g><g
       id="g20"
       style="display:inline;stroke-width:0.957345;stroke-dasharray:none"
       transform="matrix(1.4070716,0,0,1.4075242,-34.974476,-23.520844)"><path
         style="font-variation-settings:normal;opacity:1;fill:#000000;fill-opacity:1;stroke:none;stroke-width:0.957345;stroke-linecap:butt;stroke-linejoin:miter;stroke-miterlimit:4;stroke-dasharray:none;stroke-dashoffset:0;stroke-opacity:1;paint-order:stroke fill markers"
         d="m 94.658134,95.531568 c 1.443264,-0.239339 2.535264,0.396235 3.53749,1.179055 0.525195,0.41022 1.439615,2.180874 1.439615,2.180874 0,0 3.259071,0.732334 3.641901,0.874529 0.38284,0.142195 0.6891,0.07657 0.97349,-0.07657 0.28439,-0.153133 0.18595,-0.240639 0.18595,-0.404709 -0.41565,0.03281 -1.3782,-0.12032 -1.81572,-0.973487 -0.43752,-0.85317 -1.06099,-1.739151 -1.88135,-4.079896 -0.43752,-0.645345 -0.907857,-0.831292 -1.706335,-0.667221 -0.798478,0.164071 -5.611042,2.172393 -5.611042,2.172393 z"
         id="path19"
         sodipodi:nodetypes="sscsscscscs" /><path
         style="font-variation-settings:normal;opacity:1;fill:#000000;fill-opacity:1;stroke:none;stroke-width:0.957345;stroke-linecap:butt;stroke-linejoin:miter;stroke-miterlimit:4;stroke-dasharray:none;stroke-dashoffset:0;stroke-opacity:1;paint-order:stroke fill markers"
         d="m 141.58222,76.489839 1.99073,1.137558 1.54226,1.225063 1.01724,0.415645 -0.88598,-2.515754 -1.5532,-1.750089 -3.33612,1.334445 z"
         id="path20"
         sodipodi:nodetypes="cccccccc" /></g></g></svg>
