<svg width="28" height="28" viewBox="0 0 28 28" fill="none" xmlns="http://www.w3.org/2000/svg">
<path d="M24.3668 11.0597L24.4497 11.3712L24.7676 11.4243L27.5 11.8806V16.1712L24.8335 16.5745L24.5094 16.6236L24.4251 16.9403C24.2057 17.7649 23.8751 18.4866 23.4762 19.229L23.3295 19.5021L23.5089 19.755L25.1314 22.0415L22.1119 25.0673L19.8319 23.4425L19.5783 23.2619L19.3043 23.4097C18.5714 23.8051 17.7883 24.1406 17.0124 24.3627L16.7086 24.4497L16.6568 24.7614L16.2013 27.5H11.9141L11.4597 24.8184L11.406 24.5018L11.0958 24.4189C10.2661 24.1971 9.48587 23.863 8.75413 23.4681L8.4801 23.3203L8.22653 23.501L5.94645 25.1258L2.92686 22.0999L4.54946 19.8134L4.72893 19.5605L4.58212 19.2873C4.18323 18.5451 3.85259 17.8234 3.63319 16.9988L3.55031 16.6873L3.23237 16.6342L0.5 16.1778V11.8884L3.22343 11.4841L3.54861 11.4358L3.63318 11.1181C3.85455 10.2865 4.18809 9.50453 4.58216 8.77104L4.73065 8.49464L4.54635 8.24071L2.93214 6.01662L6.0033 2.98786L8.22833 4.55872L8.48145 4.73742L8.75413 4.59029C9.49478 4.19066 10.2148 3.85943 11.0374 3.63964L11.3487 3.55647L11.4015 3.23862L11.857 0.5H16.1443L16.5987 3.1816L16.6513 3.49204L16.954 3.57873C17.7299 3.80095 18.5131 4.13649 19.2459 4.53187L19.5154 4.67727L19.7674 4.50331L22.0462 2.93016L25.0719 6.01103L23.4536 8.24071L23.2623 8.5044L23.4262 8.78597C23.8127 9.44989 24.1453 10.227 24.3668 11.0597ZM8.1333 14.0293C8.1333 17.2856 10.7479 19.9071 14 19.9071C17.2521 19.9071 19.8667 17.2856 19.8667 14.0293C19.8667 10.7694 17.1903 8.15134 14 8.15134C10.8097 8.15134 8.1333 10.7694 8.1333 14.0293Z" stroke="black"/>
</svg>
